<svg xmlns="http://www.w3.org/2000/svg" width="7" height="11"><defs><clipPath id="a"><path transform="translate(.602)" fill="none" d="M0 0h7v11H0z"/></clipPath><clipPath id="b"><path data-name="Прямоугольник 1" transform="translate(.602 -2.017)" fill="none" d="M0 0h6.996v15.033H0z"/></clipPath></defs><g data-name="map" transform="translate(-.602)" clip-path="url(#a)"><g data-name="Сгруппировать 3"><g data-name="Сгруппировать 2"><g data-name="Сгруппировать 1" clip-path="url(#b)"><path data-name="Контур 1" d="M4.1-2.017C2.169-2.017.6.084.6 2.677A6.025 6.025 0 00.944 4.7C.957 4.739 4.1 13 4.1 13l3.121-8.193a6 6 0 00.379-2.13c0-2.593-1.565-4.694-3.5-4.694zm0 7.509C2.942 5.493 2 4.231 2 2.677S2.942-.139 4.1-.139s2.1 1.261 2.1 2.816-.939 2.816-2.1 2.816zm0 0"/></g></g></g></g><path data-name="Color Overlay" d="M2.738 11C1.807 8.551.351 4.728.338 4.7a6.021 6.021 0 01-.342-2.026A5.842 5.842 0 01.62-.003h2.222a2.863 2.863 0 00-1.446 2.677c0 1.553.94 2.816 2.1 2.816s2.1-1.263 2.1-2.816A2.864 2.864 0 004.149-.003h2.222a5.784 5.784 0 01.621 2.438v.477a5.947 5.947 0 01-.376 1.893l-2.358 6.193z" fill="#5baa00"/></svg>