<svg width="20" height="20" viewBox="0 0 20 20" fill="none" xmlns="http://www.w3.org/2000/svg">
<path d="M17.04 2.85C15.34 1.2 13.33 0.25 11 0V3.62L20 8.8C19.72 6.5 18.73 4.5 17.04 2.85ZM10 20C13.44 20 16.16 18.62 18.17 15.86L15.06 14L6.07 19.2C7.32 19.73 8.64 20 10 20ZM11 9.41L19.15 14.07C19.59 13.13 19.88 12.14 20 11.11L11 5.93V9.41ZM1.88 15.81C2.54 16.72 3.26 17.46 4.05 18L13.04 12.9L10 11.15L1.88 15.81ZM9.04 0C8 0.09 7 0.36 6 0.8V11.15L9.04 9.41V0ZM0 10C0 11.39 0.3 12.77 0.89 14.12L4 12.28V2C1.33 4 0 6.65 0 10Z" fill="#5BAA00"/>
</svg>
