<svg width="18" height="22" viewBox="0 0 18 22" fill="none" xmlns="http://www.w3.org/2000/svg">
<path d="M18 10C18 15.55 14.16 20.74 9 22C3.84 20.74 0 15.55 0 10V4L9 0L18 4V10ZM9 20C12.75 19 16 14.54 16 10.22V5.3L9 2.18L2 5.3V10.22C2 14.54 5.25 19 9 20ZM9 5C9.79565 5 10.5587 5.31607 11.1213 5.87868C11.6839 6.44129 12 7.20435 12 8C12 9.31 11.17 10.42 10 10.83V13H12V15H10V17H8V10.83C6.83 10.42 6 9.31 6 8C6 7.20435 6.31607 6.44129 6.87868 5.87868C7.44129 5.31607 8.20435 5 9 5ZM9 7C8.73478 7 8.48043 7.10536 8.29289 7.29289C8.10536 7.48043 8 7.73478 8 8C8 8.26522 8.10536 8.51957 8.29289 8.70711C8.48043 8.89464 8.73478 9 9 9C9.26522 9 9.51957 8.89464 9.70711 8.70711C9.89464 8.51957 10 8.26522 10 8C10 7.73478 9.89464 7.48043 9.70711 7.29289C9.51957 7.10536 9.26522 7 9 7Z" fill="#5BAA00"/>
</svg>
