<svg width="20" height="20" viewBox="0 0 20 20" fill="none" xmlns="http://www.w3.org/2000/svg">
<path d="M2 2H9V0H2C1.46957 0 0.960859 0.210714 0.585786 0.585786C0.210714 0.960859 0 1.46957 0 2V9H2V2ZM8 11L4 16H16L13 12L10.97 14.71L8 11ZM15 6.5C15 6.10218 14.842 5.72064 14.5607 5.43934C14.2794 5.15804 13.8978 5 13.5 5C13.1022 5 12.7206 5.15804 12.4393 5.43934C12.158 5.72064 12 6.10218 12 6.5C12 6.89782 12.158 7.27936 12.4393 7.56066C12.7206 7.84196 13.1022 8 13.5 8C13.8978 8 14.2794 7.84196 14.5607 7.56066C14.842 7.27936 15 6.89782 15 6.5ZM18 0H11V2H18V9H20V2C20 1.46957 19.7893 0.960859 19.4142 0.585786C19.0391 0.210714 18.5304 0 18 0ZM18 18H11V20H18C18.5304 20 19.0391 19.7893 19.4142 19.4142C19.7893 19.0391 20 18.5304 20 18V11H18V18ZM2 11H0V18C0 18.5304 0.210714 19.0391 0.585786 19.4142C0.960859 19.7893 1.46957 20 2 20H9V18H2V11Z" fill="#5BAA00"/>
</svg>
