<svg width="20" height="16" viewBox="0 0 20 16" fill="none" xmlns="http://www.w3.org/2000/svg">
<path d="M18 8.00004H20V10H18C16.62 10 15.26 9.65004 14 9.00004C11.5 10.3 8.5 10.3 6 9.00004C4.74 9.65004 3.37 10 2 10H0V8.00004H2C3.39 8.00004 4.78 7.53004 6 6.67004C8.44 8.38004 11.56 8.38004 14 6.67004C15.22 7.53004 16.61 8.00004 18 8.00004ZM18 2.00004H20V4.00004H18C16.62 4.00004 15.26 3.65004 14 3.00004C11.5 4.30004 8.5 4.30004 6 3.00004C4.74 3.65004 3.37 4.00004 2 4.00004H0V2.00004H2C3.39 2.00004 4.78 1.53004 6 0.670044C8.44 2.38004 11.56 2.38004 14 0.670044C15.22 1.53004 16.61 2.00004 18 2.00004ZM18 14H20V16H18C16.62 16 15.26 15.65 14 15C11.5 16.3 8.5 16.3 6 15C4.74 15.65 3.37 16 2 16H0V14H2C3.39 14 4.78 13.53 6 12.67C8.44 14.38 11.56 14.38 14 12.67C15.22 13.53 16.61 14 18 14Z" fill="#5BAA00"/>
</svg>
