<svg width="20" height="16" viewBox="0 0 20 16" fill="none" xmlns="http://www.w3.org/2000/svg">
<path d="M20.0001 3V12C20.0001 12.71 19.6201 13.36 19.0001 13.72V15.25C19.0001 15.66 18.6601 16 18.2501 16H17.7501C17.3401 16 17.0001 15.66 17.0001 15.25V14H10.0001V15.25C10.0001 15.66 9.66011 16 9.25011 16H8.75011C8.34011 16 8.00011 15.66 8.00011 15.25V13.72C7.39011 13.36 7.00011 12.71 7.00011 12V3C7.00011 0 10.0001 0 13.5001 0C17.0001 0 20.0001 0 20.0001 3ZM11.0001 11C11.0001 10.45 10.5501 10 10.0001 10C9.45011 10 9.00011 10.45 9.00011 11C9.00011 11.55 9.45011 12 10.0001 12C10.5501 12 11.0001 11.55 11.0001 11ZM18.0001 11C18.0001 10.45 17.5501 10 17.0001 10C16.4501 10 16.0001 10.45 16.0001 11C16.0001 11.55 16.4501 12 17.0001 12C17.5501 12 18.0001 11.55 18.0001 11ZM18.0001 3H9.00011V7H18.0001V3ZM5.00011 5.5C4.97011 4.12 3.83011 3 2.45011 3.05C1.07011 3.08 -0.0298889 4.22 0.000111067 5.6C0.0301111 6.77 0.860111 7.77 2.00011 8V16H3.00011V8C4.18011 7.76 5.00011 6.71 5.00011 5.5Z" fill="#5BAA00"/>
</svg>
