<svg width="12" height="18" viewBox="0 0 12 18" fill="none" xmlns="http://www.w3.org/2000/svg">
<path d="M6 0.77002L5.25 1.61002C5.25 1.61002 3.97 3.06002 2.68 4.94002C1.39 6.82002 0 9.07002 0 11.23C0 12.8213 0.632141 14.3474 1.75736 15.4727C2.88258 16.5979 4.4087 17.23 6 17.23C7.5913 17.23 9.11742 16.5979 10.2426 15.4727C11.3679 14.3474 12 12.8213 12 11.23C12 9.07002 10.61 6.82002 9.32 4.94002C8.03 3.06002 6.75 1.61002 6.75 1.61002L6 0.77002ZM6 3.90002C6.44 4.42002 6.84 4.85002 7.68 6.07002C8.89 7.83002 10 10.07 10 11.23C10 13.45 8.22 15.23 6 15.23C3.78 15.23 2 13.45 2 11.23C2 10.07 3.11 7.83002 4.32 6.07002C5.16 4.85002 5.56 4.42002 6 3.90002Z" fill="#5BAA00"/>
</svg>
