<svg width="22" height="19" viewBox="0 0 22 19" fill="none" xmlns="http://www.w3.org/2000/svg">
<path d="M21 7H16.21L11.83 0.44C11.64 0.16 11.32 0 11 0C10.68 0 10.36 0.16 10.17 0.45L5.79 7H1C0.45 7 0 7.45 0 8C0 8.09 -3.72529e-08 8.18 0.04 8.27L2.58 17.54C2.81 18.38 3.58 19 4.5 19H17.5C18.42 19 19.19 18.38 19.43 17.54L21.97 8.27L22 8C22 7.45 21.55 7 21 7ZM11 2.8L13.8 7H8.2L11 2.8ZM17.5 17H4.5L2.31 9H19.7L17.5 17ZM11 11C9.9 11 9 11.9 9 13C9 14.1 9.9 15 11 15C12.1 15 13 14.1 13 13C13 11.9 12.1 11 11 11Z" fill="#5BAA00"/>
</svg>
