<svg width="20" height="20" viewBox="0 0 20 20" fill="none" xmlns="http://www.w3.org/2000/svg">
<path d="M13.5 7.63C12.21 8.32 11.03 9.2 10 10.26C8.97 9.19 7.79 8.31 6.5 7.63C6.74 4.86 7.92 2.14 10.06 0C12.18 2.12 13.31 4.84 13.5 7.63ZM10 13.45C12.15 10.17 15.82 8 20 8C20 18 10.68 19.88 10 20C9.32 19.89 0 18 0 8C4.18 8 7.85 10.17 10 13.45ZM10.05 3.19C9.39 4.23 8.93 5.38 8.68 6.58L10 7.55L11.35 6.57C11.12 5.37 10.68 4.22 10.05 3.19ZM10 17.97C10 17.97 16 17 17.74 10.25C12 12 10 17.1 10 17.1C10 17.1 7 11 2.26 10.26C4 17 10 17.97 10 17.97Z" fill="#5BAA00"/>
</svg>
