<?xml version="1.0" encoding="UTF-8"?>
<svg fill = "#5baa00" xmlns="http://www.w3.org/2000/svg" id="Icons" viewBox="0 0 60 60" width="512" height="512"><path d="M57,12H9V6A2,2,0,0,0,7,4H5A5.006,5.006,0,0,0,0,9V55c0,.151.01.312.022.48A4.97,4.97,0,0,0,5,60H57a3,3,0,0,0,3-3V15A3,3,0,0,0,57,12ZM2,9A3,3,0,0,1,5,6H7V50H5a4.973,4.973,0,0,0-3,1ZM58,57a1,1,0,0,1-1,1H5a2.973,2.973,0,0,1-2.983-2.686C2.009,55.211,2,55.1,2,55a3,3,0,0,1,3-3H7a2,2,0,0,0,2-2V14H57a1,1,0,0,1,1,1Z"/><path d="M53,21H14a3,3,0,0,0-3,3V49a3,3,0,0,0,3,3h4.382l1.723,3.447a1,1,0,0,0,1.79-.894l-2-4A1,1,0,0,0,19,50H14a1,1,0,0,1-1-1V37h7a2,2,0,0,0,2-2V23H37V35H26a1,1,0,0,0,0,2h5V50H25a1,1,0,0,0,0,2H53a3,3,0,0,0,3-3V24A3,3,0,0,0,53,21ZM20,35H13V24a1,1,0,0,1,1-1h6Zm13,2h4a2,2,0,0,0,2-2V23h6v9a1,1,0,0,0,2,0V23h6a1,1,0,0,1,1,1V36H47a2,2,0,0,0-2,2V50H33ZM53,50H47V38h7V49A1,1,0,0,1,53,50Z"/></svg>
